<?xml version="1.0" standalone="no"?>
<!DOCTYPE svg PUBLIC "-//W3C//DTD SVG 20010904//EN"
 "http://www.w3.org/TR/2001/REC-SVG-20010904/DTD/svg10.dtd">
<svg version="1.0" xmlns="http://www.w3.org/2000/svg"
 width="225.000000pt" height="225.000000pt" viewBox="0 0 225.000000 225.000000"
 preserveAspectRatio="xMidYMid meet">

<g transform="translate(0.000000,225.000000) scale(0.100000,-0.100000)"
fill="#000000" stroke="none">
<path d="M993 2243 l-43 -4 0 -53 c0 -51 -1 -53 -35 -63 l-34 -11 -17 50 c-9
28 -21 48 -28 45 -6 -2 -35 -12 -63 -21 -29 -10 -53 -21 -53 -26 0 -4 7 -24
16 -45 8 -20 14 -38 12 -40 -9 -8 -70 -36 -72 -33 -1 2 -13 20 -25 41 -12 20
-27 37 -33 37 -9 0 -92 -43 -107 -56 -2 -2 8 -23 22 -48 l25 -46 -30 -21 -30
-22 -35 37 -35 37 -41 -37 c-23 -20 -46 -41 -51 -45 -6 -6 3 -22 23 -43 27
-28 31 -37 22 -53 -22 -43 -38 -47 -74 -19 -19 14 -38 26 -44 26 -6 0 -26 -23
-46 -52 l-36 -51 39 -30 c22 -16 40 -31 40 -33 0 -4 -15 -29 -36 -62 -1 -2
-20 6 -43 17 -22 12 -43 21 -45 21 -3 0 -19 -27 -36 -61 l-30 -60 46 -21 c44
-19 46 -22 40 -51 -9 -43 -18 -50 -50 -37 -54 20 -62 15 -75 -50 -7 -33 -10
-64 -6 -69 3 -5 23 -12 45 -16 39 -7 40 -8 40 -46 l0 -39 -55 0 -55 0 0 -65 0
-65 54 0 54 0 4 -41 c4 -44 4 -44 -56 -54 l-38 -6 7 -46 c13 -87 17 -92 70
-81 26 5 48 8 51 6 2 -3 7 -19 10 -37 6 -30 4 -32 -35 -48 -22 -9 -41 -22 -41
-28 0 -19 42 -115 50 -115 4 0 24 7 43 15 49 20 53 20 68 -17 12 -28 11 -33
-7 -44 -64 -43 -63 -36 -20 -98 21 -31 41 -56 44 -56 3 0 20 11 38 25 41 31
45 31 74 0 l24 -25 -38 -39 -37 -38 54 -46 55 -47 26 35 c31 40 41 42 75 16
l25 -19 -27 -41 -27 -40 55 -36 c31 -19 60 -35 65 -35 5 0 19 18 30 40 22 44
27 46 65 28 29 -13 30 -17 10 -65 -9 -20 -12 -40 -8 -43 10 -9 102 -40 118
-40 6 0 16 21 23 46 11 41 15 45 35 40 12 -3 30 -6 40 -6 15 0 17 -6 11 -50
-7 -55 -4 -57 86 -62 l45 -3 3 48 3 47 38 0 c38 0 38 0 44 -45 2 -26 7 -48 10
-51 2 -3 33 -1 68 3 l64 8 0 50 c0 47 1 49 32 56 31 6 33 5 48 -42 l16 -48 57
21 c31 11 60 24 65 27 4 4 1 26 -7 49 l-15 42 29 15 c41 21 44 20 66 -25 10
-22 23 -40 28 -40 12 0 116 60 116 67 0 3 -9 21 -21 40 -24 39 -21 53 14 72
24 13 28 12 52 -18 15 -17 32 -31 39 -31 6 0 31 20 55 44 l43 43 -33 37 -32
37 26 26 26 26 35 -26 c19 -15 37 -27 39 -27 3 0 24 24 47 52 l42 53 -24 18
c-13 11 -31 25 -42 32 -18 13 -18 14 0 44 20 35 28 37 64 16 40 -23 50 -18 76
40 13 31 24 57 24 60 0 2 -20 13 -45 24 l-45 20 13 33 c14 34 24 37 83 25 30
-6 31 -5 42 44 19 82 18 87 -33 95 -44 6 -45 7 -45 45 l0 38 53 3 52 3 0 65 0
65 -52 3 -53 3 0 39 c0 35 3 40 28 46 67 15 65 12 58 65 -10 77 -14 82 -53 74
-19 -3 -41 -9 -49 -12 -9 -3 -17 5 -24 22 -16 43 -12 55 24 70 19 8 38 19 41
25 8 13 -35 120 -47 120 -5 0 -27 -9 -48 -20 l-40 -20 -17 35 c-16 34 -16 36
3 49 62 45 60 37 23 94 -19 28 -40 52 -47 52 -7 0 -28 -11 -46 -25 l-33 -25
-21 23 c-28 29 -28 31 5 73 l26 35 -47 47 -47 47 -35 -38 -34 -37 -30 22 c-35
26 -35 25 -10 63 11 17 20 35 20 42 0 6 -25 25 -56 42 l-55 30 -20 -32 c-10
-18 -20 -36 -22 -41 -4 -11 -77 14 -77 26 0 5 7 25 15 45 9 20 12 39 8 43 -19
15 -115 42 -123 34 -4 -5 -13 -26 -20 -46 -12 -39 -17 -41 -59 -29 -21 6 -24
13 -25 56 l-1 50 -59 8 c-32 5 -60 6 -63 3 -3 -3 -8 -25 -10 -51 -6 -45 -6
-45 -44 -45 l-38 0 -7 50 c-6 43 -10 50 -28 48 -11 -1 -40 -3 -63 -5z m73 -63
l7 -50 58 0 59 0 0 44 c0 25 4 47 8 50 4 2 27 2 51 -1 l43 -6 -5 -48 c-6 -45
-4 -49 18 -55 13 -3 39 -7 56 -7 29 -2 33 2 46 41 16 45 15 45 82 20 18 -6 22
-13 17 -31 -17 -57 -18 -74 -4 -80 7 -3 30 -12 50 -21 l38 -16 20 40 c11 22
23 40 26 40 4 0 24 -10 45 -22 l39 -22 -20 -33 c-28 -47 -26 -56 21 -89 l41
-28 32 35 33 35 38 -33 39 -33 -32 -33 c-18 -18 -32 -36 -32 -40 0 -11 61 -77
72 -77 5 0 24 11 43 26 l33 25 26 -34 c14 -19 26 -39 26 -45 0 -6 -16 -20 -35
-32 -19 -12 -35 -24 -35 -27 0 -12 51 -93 58 -93 4 1 18 7 32 15 14 8 32 14
41 15 16 0 53 -65 45 -79 -3 -4 -23 -16 -46 -26 -23 -11 -39 -24 -36 -31 2 -6
10 -30 17 -53 13 -45 16 -46 72 -30 22 6 40 9 42 7 2 -2 6 -24 10 -49 l7 -46
-47 -7 -46 -7 3 -57 3 -57 53 -3 52 -3 0 -49 0 -49 -52 -3 -53 -3 -3 -49 c-4
-55 5 -66 56 -66 34 0 35 -3 25 -63 l-6 -39 -52 7 -53 6 -16 -47 c-9 -26 -16
-51 -16 -54 0 -4 20 -15 44 -24 l45 -17 -16 -37 c-21 -52 -23 -53 -70 -32
l-41 18 -26 -39 c-34 -50 -33 -60 9 -87 19 -12 35 -26 35 -30 0 -4 -13 -23
-29 -42 l-28 -34 -40 26 -40 27 -39 -40 -38 -39 34 -35 34 -35 -35 -36 -34
-35 -32 37 -33 37 -40 -28 c-54 -37 -55 -40 -31 -79 12 -18 21 -37 21 -42 0
-5 -18 -19 -39 -31 l-40 -23 -22 40 c-26 46 -28 46 -86 23 -48 -20 -49 -25
-28 -76 l14 -35 -39 -16 c-22 -9 -45 -16 -50 -16 -5 0 -15 20 -21 45 -13 50
-12 50 -75 34 l-44 -11 0 -48 0 -47 -41 -7 c-22 -4 -44 -4 -50 -1 -5 4 -9 26
-9 51 l0 44 -60 0 -60 0 0 -43 c0 -24 -2 -46 -4 -48 -3 -2 -26 -3 -51 -1 l-47
4 6 48 c7 53 6 54 -65 65 l-44 7 -13 -47 c-13 -50 -12 -49 -79 -24 -27 10 -28
18 -8 64 l14 35 -49 25 -50 25 -28 -45 -28 -44 -42 25 c-23 14 -42 27 -42 30
0 3 11 21 25 41 13 20 22 39 20 43 -2 4 -23 20 -46 36 l-41 28 -34 -39 -33
-40 -37 36 -36 36 32 36 c35 40 33 52 -14 96 l-25 24 -36 -27 c-43 -33 -54
-30 -80 18 -18 34 -18 38 -4 46 9 5 26 18 39 28 l24 19 -28 47 c-15 25 -29 46
-32 46 -3 0 -22 -9 -44 -20 -22 -11 -41 -20 -44 -20 -3 0 -36 86 -36 95 0 1
18 7 40 14 21 6 41 15 43 19 3 4 -2 29 -10 55 l-14 49 -48 -7 c-27 -4 -51 -3
-54 2 -3 4 -7 26 -8 47 -4 39 -4 39 41 50 l44 11 -3 50 c-1 27 -5 54 -8 58 -3
5 -26 7 -52 5 l-46 -3 -3 48 -3 47 55 0 56 0 0 55 0 55 -46 11 c-39 10 -45 15
-40 33 3 12 6 34 6 50 0 30 3 31 83 11 23 -6 27 -3 37 35 6 23 13 47 16 55 4
8 -11 19 -41 30 -35 14 -44 22 -39 34 3 9 11 28 16 44 11 30 30 34 68 12 38
-22 45 -19 71 31 l24 45 -24 20 c-13 11 -31 24 -40 28 -13 8 -11 15 13 50 30
42 31 43 82 4 l31 -23 24 28 c54 62 54 58 20 94 -17 18 -31 36 -31 40 0 4 16
19 36 34 l35 27 30 -36 31 -37 44 32 c24 17 44 34 44 37 0 3 -9 21 -20 39 -27
43 -26 47 16 71 41 24 54 19 74 -29 7 -17 16 -30 21 -30 16 0 99 44 99 52 0 5
-7 25 -15 45 -8 20 -14 37 -13 38 8 6 73 25 84 25 8 0 17 -12 20 -27 14 -58
18 -61 73 -49 l51 10 0 52 c0 52 0 53 33 57 17 2 37 5 44 5 8 1 15 -18 19 -48z"/>
<path d="M1133 2070 c-7 -27 -111 -32 -167 -8 -45 19 -76 10 -76 -22 0 -24
-26 -26 -54 -5 -29 22 -45 17 -18 -5 l24 -20 -24 -9 c-12 -5 -42 -17 -66 -26
-34 -14 -48 -15 -68 -6 -32 14 -31 14 -38 -6 -4 -9 -1 -20 5 -24 8 -4 -1 -15
-24 -30 -20 -13 -37 -28 -37 -33 0 -5 3 -7 6 -4 10 10 53 -42 48 -57 -4 -8 -1
-15 5 -15 6 0 13 11 17 25 5 20 9 23 20 14 20 -16 17 1 -6 39 -24 38 -24 42
-7 42 8 0 22 -16 33 -35 10 -19 22 -35 26 -35 12 0 10 7 -12 50 -20 39 -20 39
-1 50 25 13 52 14 31 0 -22 -14 6 -60 37 -60 13 0 23 5 23 11 0 6 9 8 20 4 18
-6 19 -4 10 20 -6 14 -15 35 -20 46 -9 16 -7 19 9 19 14 0 21 -9 25 -35 9 -47
31 -60 23 -14 -3 19 -7 40 -9 48 -1 8 4 16 12 18 11 3 19 -10 28 -42 7 -25 16
-43 22 -40 6 4 6 15 0 31 -15 39 -12 61 10 67 17 4 20 1 18 -20 -2 -14 3 -28
10 -30 8 -3 12 6 12 26 0 47 17 37 24 -14 10 -62 27 -57 19 5 l-6 50 37 0 c39
0 49 -14 16 -23 -25 -6 -26 -35 -2 -44 9 -4 20 -11 23 -16 11 -16 28 1 22 22
-3 10 0 22 7 26 17 10 25 -2 11 -19 -8 -9 -8 -16 -2 -20 12 -8 34 30 26 44 -3
6 -15 10 -26 10 -10 0 -19 5 -19 10 0 6 16 10 36 10 l36 0 -3 -45 c-4 -64 8
-66 18 -3 6 39 5 56 -4 66 -7 7 -13 18 -13 23 0 18 -42 9 -47 -11z m37 -5 c10
-12 10 -15 -4 -15 -9 0 -16 7 -16 15 0 8 2 15 4 15 2 0 9 -7 16 -15z m-220
-15 c12 -8 12 -10 -3 -16 -22 -8 -50 3 -42 16 8 12 25 13 45 0z m140 -55 c0
-8 -4 -15 -10 -15 -5 0 -10 7 -10 15 0 8 5 15 10 15 6 0 10 -7 10 -15z m-284
-71 c-4 -13 -11 -24 -17 -24 -6 0 -8 9 -4 20 5 16 3 19 -12 14 -17 -5 -17 -5
0 9 9 8 17 20 17 28 1 9 4 8 11 -4 6 -10 8 -29 5 -43z m-152 -40 c9 -25 -4
-37 -19 -17 -13 18 -11 33 5 33 4 0 11 -7 14 -16z"/>
<path d="M1313 2023 c9 -2 17 -11 17 -18 0 -9 -6 -12 -15 -9 -18 7 -19 -2 -4
-45 13 -37 32 -42 23 -6 -5 19 -2 25 11 25 11 0 16 -7 13 -22 -5 -39 17 -32
26 9 11 48 8 45 39 34 19 -7 25 -15 20 -27 -4 -12 -8 -13 -14 -3 -13 22 -19 6
-12 -34 6 -39 23 -51 23 -17 0 26 26 26 33 0 3 -11 17 -24 31 -30 17 -6 24
-14 20 -25 -12 -30 13 -14 32 20 10 19 24 35 31 35 18 0 16 -10 -8 -49 -22
-36 -18 -57 5 -25 45 61 39 59 72 31 16 -14 26 -29 21 -33 -4 -4 -13 -2 -19 4
-17 17 -38 15 -38 -4 0 -10 6 -14 15 -11 20 8 30 -11 15 -28 -7 -8 -10 -20 -8
-26 2 -7 16 3 32 24 16 20 32 34 37 31 5 -3 9 -1 9 4 0 10 -146 112 -161 112
-4 0 -6 -7 -3 -15 8 -20 -42 -43 -58 -27 -9 9 -7 12 10 12 30 0 41 29 17 46
-16 12 -21 12 -35 -1 -21 -19 -30 -19 -30 0 0 8 8 15 18 15 9 1 1 8 -18 16
-43 20 -130 44 -150 43 -11 -1 -10 -3 3 -6z m57 -28 c0 -8 -4 -15 -10 -15 -5
0 -10 7 -10 15 0 8 5 15 10 15 6 0 10 -7 10 -15z m150 -55 c0 -5 -2 -10 -4
-10 -3 0 -8 5 -11 10 -3 6 -1 10 4 10 6 0 11 -4 11 -10z"/>
<path d="M965 1865 c-191 -41 -365 -163 -476 -333 -82 -125 -119 -251 -119
-410 0 -121 22 -216 75 -327 130 -269 382 -427 680 -427 338 0 613 202 725
532 31 93 39 279 15 386 -47 220 -212 428 -412 521 -146 68 -339 91 -488 58z
m335 -22 c362 -86 613 -452 560 -815 -47 -322 -277 -567 -592 -632 -383 -79
-761 163 -865 554 -24 91 -22 260 5 362 90 338 415 575 757 551 39 -2 99 -11
135 -20z"/>
<path d="M1022 1747 c-38 -40 -23 -104 23 -104 20 0 23 2 14 13 -16 19 -4 18
15 -2 14 -14 16 -13 14 10 -3 29 -3 29 -27 17 -37 -20 -59 26 -30 63 25 32 20
34 -9 3z m13 -85 c-3 -3 -11 0 -18 7 -9 10 -8 11 6 5 10 -3 15 -9 12 -12z"/>
<path d="M1245 1727 c8 -38 -10 -60 -36 -46 -22 11 -39 4 -39 -16 0 -23 33
-35 60 -22 12 7 23 17 22 22 0 6 4 17 8 25 5 9 2 25 -6 40 l-15 25 6 -28z
m-20 -67 c4 -6 -1 -7 -11 -3 -12 4 -15 3 -10 -5 5 -8 2 -10 -9 -5 -13 5 -14 7
-3 14 17 11 26 11 33 -1z"/>
<path d="M846 1688 c-21 -30 -21 -33 16 -71 23 -23 30 -27 25 -12 -6 18 -6 18
6 3 16 -20 47 -6 47 22 0 24 -13 25 -45 4 -24 -15 -25 -15 -37 11 -9 21 -9 31
0 46 17 26 7 24 -12 -3z"/>
<path d="M1411 1667 c-1 -15 -8 -30 -16 -33 -8 -4 -13 -10 -10 -14 3 -5 0 -12
-7 -16 -7 -4 -10 -3 -5 1 7 8 -20 45 -33 45 -14 0 -20 -33 -9 -46 6 -8 22 -14
34 -14 24 0 49 22 38 33 -3 4 -2 7 4 7 16 0 21 22 12 45 -7 17 -8 16 -8 -8z"/>
<path d="M1105 1626 c-27 -41 -63 -45 -104 -11 l-31 27 0 -24 c0 -56 -57 -86
-111 -58 -17 10 -19 7 -19 -23 0 -48 -28 -70 -80 -65 -33 3 -39 1 -34 -12 15
-36 15 -62 0 -85 -9 -14 -12 -25 -7 -25 15 0 34 58 27 85 -6 23 -4 25 29 25
41 0 75 29 75 64 0 22 3 23 43 19 38 -5 46 -2 65 21 11 15 23 32 26 39 3 9 7
9 14 -1 5 -7 24 -15 43 -18 28 -5 39 -1 60 20 l26 26 23 -25 c13 -14 31 -25
41 -25 24 0 73 19 66 26 -3 3 -15 0 -27 -6 -31 -16 -68 -4 -88 29 l-17 28 -20
-31z"/>
<path d="M1267 1633 c-9 -14 14 -63 37 -83 10 -8 31 -11 56 -7 36 5 40 3 40
-17 0 -33 36 -66 70 -66 28 0 30 -3 31 -37 l1 -38 7 35 c4 20 10 40 13 46 4 6
-9 8 -33 6 -51 -5 -79 18 -79 65 0 30 -2 33 -19 23 -50 -26 -99 -4 -110 50 -4
22 -10 30 -14 23z"/>
<path d="M690 1578 c0 -27 11 -48 32 -59 16 -9 19 -8 14 3 -4 7 -1 6 5 -3 18
-24 59 -4 59 28 0 28 -30 32 -37 4 -7 -26 -40 -16 -58 18 -10 18 -14 21 -15 9z"/>
<path d="M1542 1557 c-12 -35 -32 -50 -32 -26 0 6 -6 9 -13 6 -8 -3 -20 -1
-28 5 -11 8 -10 9 4 4 9 -3 17 -1 17 4 0 15 -15 19 -30 10 -19 -12 0 -46 24
-44 9 1 13 -2 10 -7 -3 -5 1 -9 9 -9 21 0 59 49 55 73 -2 16 -6 13 -16 -16z"/>
<path d="M1145 1549 c175 -22 297 -106 365 -252 17 -34 30 -56 30 -49 0 31
-66 139 -112 184 -82 80 -209 131 -317 127 -22 -1 -8 -5 34 -10z"/>
<path d="M989 1535 c-70 -26 -119 -56 -166 -103 -97 -97 -149 -246 -126 -363
l11 -54 -5 65 c-17 211 115 400 318 454 30 8 43 15 29 15 -14 0 -41 -6 -61
-14z"/>
<path d="M1112 1500 c0 -19 2 -27 5 -17 2 9 2 25 0 35 -3 9 -5 1 -5 -18z"/>
<path d="M1143 1505 c0 -8 4 -12 8 -9 4 2 12 -4 18 -13 14 -23 14 -7 1 18 -13
22 -27 25 -27 4z"/>
<path d="M1250 1495 c-6 -8 -10 -19 -8 -26 2 -6 9 0 16 15 13 29 10 33 -8 11z"/>
<path d="M1201 1484 c0 -11 3 -14 6 -6 3 7 2 16 -1 19 -3 4 -6 -2 -5 -13z"/>
<path d="M1221 1474 c0 -11 3 -14 6 -6 3 7 2 16 -1 19 -3 4 -6 -2 -5 -13z"/>
<path d="M1269 1474 c-6 -8 -9 -17 -5 -21 3 -3 6 -1 6 5 0 7 4 12 9 12 5 0 7
-10 5 -22 -2 -13 -1 -16 2 -8 4 8 10 17 14 20 4 3 2 10 -5 17 -10 10 -16 9
-26 -3z"/>
<path d="M966 1467 c3 -10 9 -15 12 -12 3 3 0 11 -7 18 -10 9 -11 8 -5 -6z"/>
<path d="M583 1446 c2 -36 45 -71 76 -61 30 9 46 42 30 61 -11 14 -15 13 -31
-8 -22 -28 -24 -45 -3 -28 9 7 15 8 15 2 0 -38 -74 -2 -83 41 -4 15 -5 13 -4
-7z"/>
<path d="M940 1463 c0 -6 8 -17 18 -24 16 -13 16 -13 2 6 -8 11 -16 22 -17 24
-2 2 -3 0 -3 -6z"/>
<path d="M1661 1453 c-1 -12 -11 -29 -22 -37 -18 -12 -24 -13 -35 -1 -8 7 -14
18 -14 24 0 14 -27 14 -35 1 -9 -14 12 -48 34 -55 43 -13 94 37 78 77 -3 7 -6
3 -6 -9z"/>
<path d="M888 1430 c12 -5 22 -14 22 -20 0 -5 5 -10 10 -10 7 0 7 6 0 20 -6
11 -20 20 -33 19 l-22 0 23 -9z"/>
<path d="M850 1419 c0 -8 10 -20 23 -28 l22 -14 -20 24 c-11 13 -21 26 -22 28
-2 2 -3 -2 -3 -10z"/>
<path d="M1350 1419 c-13 -9 -12 -10 3 -5 20 6 22 -4 5 -24 -11 -12 -10 -12 5
-1 23 18 34 7 16 -16 -13 -17 -13 -17 5 -3 18 14 19 13 13 -4 -6 -16 -5 -17 8
-6 14 12 13 16 -11 42 -15 15 -28 28 -28 28 -1 0 -8 -5 -16 -11z"/>
<path d="M1524 1363 c11 -13 28 -23 39 -23 14 0 17 -4 12 -17 -20 -47 -17 -72
12 -101 28 -29 29 -30 11 -52 -23 -28 -23 -47 0 -85 l19 -30 -30 -28 c-29 -27
-33 -52 -12 -99 5 -14 2 -18 -14 -18 -30 0 -61 -39 -60 -74 l2 -31 4 30 c7 43
30 65 70 65 l34 0 -20 26 c-12 15 -21 37 -21 50 0 24 31 60 61 69 14 5 13 10
-12 35 -37 37 -37 60 3 99 30 29 30 31 10 31 -29 0 -62 34 -62 64 0 13 9 35
21 50 l20 26 -32 0 c-18 0 -42 8 -53 18 -21 17 -21 17 -2 -5z"/>
<path d="M815 1350 c3 -5 1 -10 -5 -10 -6 0 -8 -4 -5 -10 3 -5 11 -10 16 -10
6 0 7 5 3 12 -5 8 -2 9 11 4 15 -5 16 -4 5 9 -14 17 -35 21 -25 5z"/>
<path d="M658 1323 c11 -16 22 -37 25 -48 5 -14 5 -12 3 5 -2 14 -7 32 -10 42
-5 11 -2 18 11 21 10 3 3 5 -15 6 l-33 1 19 -27z"/>
<path d="M1420 1338 c-12 -8 -12 -9 2 -5 9 3 19 1 22 -6 3 -9 5 -9 5 0 1 18
-13 23 -29 11z"/>
<path d="M1118 1285 c-1 -31 0 -64 4 -73 4 -9 7 16 7 56 1 85 -6 96 -11 17z"/>
<path d="M595 1305 c-3 -8 -7 -22 -10 -31 -4 -12 -13 -15 -35 -10 -37 7 -38 1
-2 -18 32 -16 89 -3 62 14 -13 8 -12 10 3 10 9 0 17 7 17 15 0 8 -5 15 -11 15
-5 0 -7 -5 -3 -12 4 -7 3 -8 -5 -4 -9 6 -9 11 0 22 9 10 9 14 0 14 -6 0 -14
-7 -16 -15z"/>
<path d="M796 1305 c4 -10 0 -15 -11 -15 -9 0 -13 -5 -10 -10 5 -8 12 -7 22 2
9 7 18 12 20 10 3 -2 6 -2 8 0 2 2 -5 9 -15 16 -16 10 -18 9 -14 -3z"/>
<path d="M1624 1295 c-4 -8 1 -26 10 -40 19 -29 66 -34 86 -10 11 13 8 14 -19
9 -30 -6 -32 -5 -35 29 -2 26 -33 35 -42 12z m19 -10 c-3 -9 -8 -14 -10 -11
-3 3 -2 9 2 15 9 16 15 13 8 -4z"/>
<path d="M1085 1260 c3 -25 10 -49 16 -54 13 -14 11 1 -6 54 l-15 45 5 -45z"/>
<path d="M1198 1263 c-29 -45 -42 -77 -28 -68 11 7 63 105 56 105 -2 0 -14
-17 -28 -37z"/>
<path d="M1443 1294 c4 -4 1 -14 -6 -22 -10 -13 -9 -14 11 -3 27 14 27 17 5
25 -10 4 -14 4 -10 0z"/>
<path d="M1045 1258 c9 -18 21 -42 27 -53 6 -11 -9 -2 -32 20 -23 22 -38 31
-32 20 19 -37 61 -70 73 -58 9 9 5 24 -15 57 -31 53 -44 61 -21 14z"/>
<path d="M1152 1251 c-14 -46 -15 -58 -3 -45 9 9 25 84 18 84 -2 0 -9 -17 -15
-39z"/>
<path d="M1223 1229 c-24 -22 -43 -43 -43 -45 0 -9 35 14 50 33 37 46 42 53
39 53 -2 0 -23 -19 -46 -41z"/>
<path d="M663 1237 c-4 -8 -21 -21 -37 -29 -27 -14 -28 -16 -10 -22 11 -3 28
-21 37 -39 14 -25 16 -27 11 -7 -3 14 -12 32 -20 40 -12 12 -10 17 14 36 15
12 24 25 20 29 -3 4 -10 0 -15 -8z"/>
<path d="M1236 1198 c-32 -18 -53 -34 -47 -36 10 -3 111 55 111 64 0 6 -1 6
-64 -28z"/>
<path d="M1542 1210 c0 -14 2 -19 5 -12 2 6 2 18 0 25 -3 6 -5 1 -5 -13z"/>
<path d="M994 1196 c16 -13 38 -27 48 -29 30 -8 9 12 -35 34 l-42 20 29 -25z"/>
<path d="M951 1171 c21 -14 100 -31 94 -21 -3 5 -20 11 -38 15 -17 4 -41 9
-52 11 -17 4 -17 3 -4 -5z"/>
<path d="M1298 1173 c7 -3 16 -2 19 1 4 3 -2 6 -13 5 -11 0 -14 -3 -6 -6z"/>
<path d="M1485 1172 c-5 -4 -10 -26 -10 -49 -1 -54 12 -43 17 15 2 23 3 42 3
42 0 0 -4 -4 -10 -8z"/>
<path d="M1552 1134 c-1 -28 -4 -67 -7 -85 l-5 -34 11 33 c5 19 8 57 6 85 l-3
52 -2 -51z"/>
<path d="M567 1163 c-4 -3 -7 -15 -7 -26 0 -16 3 -17 14 -8 11 9 16 9 22 0 4
-8 3 -9 -4 -5 -7 4 -12 2 -12 -3 0 -6 7 -11 15 -11 18 0 19 14 5 41 -11 20
-22 24 -33 12z"/>
<path d="M760 1130 c0 -22 5 -40 10 -40 6 0 10 18 10 40 0 22 -4 40 -10 40 -5
0 -10 -18 -10 -40z"/>
<path d="M1215 1155 l-30 -14 35 6 c19 3 42 9 50 14 26 15 -22 10 -55 -6z"/>
<path d="M1647 1146 c-8 -21 0 -58 15 -68 18 -11 66 -10 73 2 4 6 -6 8 -24 6
-17 -2 -39 3 -48 11 -17 13 -17 13 2 5 18 -9 20 -7 20 21 0 34 -28 50 -38 23z
m26 -11 c-3 -9 -8 -14 -10 -11 -3 3 -2 9 2 15 9 16 15 13 8 -4z"/>
<path d="M1215 1129 c-14 -5 -1 -8 39 -8 33 -1 57 1 55 3 -10 9 -76 13 -94 5z"/>
<path d="M947 1123 c18 -2 50 -2 70 0 21 2 7 4 -32 4 -38 0 -55 -2 -38 -4z"/>
<path d="M503 1093 c9 -9 20 -13 24 -9 4 4 1 11 -7 16 -25 16 -35 11 -17 -7z"/>
<path d="M553 1103 c-7 -3 -13 -9 -13 -14 0 -12 37 -12 44 0 7 11 -14 20 -31
14z"/>
<path d="M646 1092 c-4 -10 -16 -24 -29 -30 -21 -10 -21 -10 -2 -17 33 -13 65
-47 65 -70 0 -12 -9 -34 -21 -49 l-20 -26 34 0 c59 0 81 -46 52 -113 -5 -12
-3 -16 6 -12 8 3 15 23 17 47 3 46 -26 88 -61 88 -14 0 -17 4 -12 18 21 47 17
72 -12 100 -28 26 -29 29 -15 50 8 12 12 25 9 28 -3 3 -8 -3 -11 -14z"/>
<path d="M990 1094 l-35 -13 32 3 c34 4 80 26 53 25 -8 0 -31 -7 -50 -15z"/>
<path d="M1201 1100 c9 -5 36 -12 60 -15 l44 -5 -45 15 c-53 17 -85 20 -59 5z"/>
<path d="M1025 1074 c-16 -8 -41 -24 -55 -35 -21 -16 -16 -16 27 5 28 14 54
30 58 36 8 13 6 13 -30 -6z"/>
<path d="M1195 1080 c3 -5 23 -17 43 -26 20 -10 40 -19 45 -21 4 -2 7 -2 7 0
0 6 -86 57 -95 57 -3 0 -3 -4 0 -10z"/>
<path d="M1055 1062 c-5 -4 -28 -27 -50 -51 l-40 -44 47 38 c26 21 50 45 52
52 6 15 5 16 -9 5z"/>
<path d="M1187 1057 c4 -8 28 -31 53 -53 l44 -39 -39 47 c-36 44 -76 75 -58
45z"/>
<path d="M1072 1048 c-13 -17 -53 -98 -49 -98 3 0 15 17 29 38 34 52 49 95 20
60z"/>
<path d="M1091 1023 c-6 -21 -11 -45 -10 -53 0 -8 7 7 14 35 8 27 12 51 10 53
-2 2 -8 -13 -14 -35z"/>
<path d="M1141 1045 c0 -11 7 -36 15 -55 l14 -35 -6 40 c-7 46 -24 83 -23 50z"/>
<path d="M1167 1043 c8 -21 54 -93 59 -93 7 0 -45 98 -56 105 -6 4 -7 -1 -3
-12z"/>
<path d="M1119 1033 c-3 -10 -1 -40 2 -68 6 -49 6 -49 7 18 2 65 -2 85 -9 50z"/>
<path d="M574 999 c-3 -6 -1 -15 6 -19 8 -5 10 -17 6 -33 -5 -23 -9 -25 -36
-17 -34 10 -39 6 -10 -10 21 -11 73 -3 65 10 -3 4 2 10 10 14 8 3 15 14 15 24
0 34 -40 56 -56 31z m46 -25 c0 -8 -5 -14 -11 -14 -5 0 -7 5 -4 10 3 6 1 10
-4 10 -6 0 -11 4 -11 10 0 5 7 7 15 4 8 -4 15 -12 15 -20z"/>
<path d="M711 1002 c-2 -26 54 -126 95 -171 42 -47 128 -104 174 -116 14 -3
-3 8 -37 26 -99 50 -169 127 -215 234 -9 22 -17 34 -17 27z"/>
<path d="M1440 1006 c0 -2 7 -7 16 -10 8 -3 12 -2 9 4 -6 10 -25 14 -25 6z"/>
<path d="M1507 939 c-36 -77 -115 -155 -197 -196 -36 -18 -58 -33 -49 -33 28
0 133 69 181 120 42 45 107 155 97 165 -2 2 -17 -24 -32 -56z"/>
<path d="M1627 993 c-11 -10 -8 -43 4 -43 5 0 8 -4 5 -8 -14 -23 38 -49 65
-31 10 6 8 9 -11 9 -26 0 -67 20 -42 20 7 0 11 4 7 9 -3 5 -1 12 5 16 13 8 13
35 0 35 -5 0 -10 -7 -10 -15 0 -8 -4 -15 -10 -15 -5 0 -7 7 -4 15 6 16 2 20
-9 8z"/>
<path d="M1756 971 c-4 -5 3 -7 14 -4 23 6 26 13 6 13 -8 0 -17 -4 -20 -9z"/>
<path d="M822 911 c-11 -7 -10 -9 3 -14 9 -4 14 -3 10 2 -3 5 1 12 7 14 7 3 9
6 3 6 -5 0 -16 -3 -23 -8z"/>
<path d="M1404 912 c3 -5 0 -13 -6 -15 -9 -4 -10 -6 -1 -6 17 -1 25 16 12 25
-7 4 -9 3 -5 -4z"/>
<path d="M635 859 c-4 -6 2 -19 14 -30 12 -11 21 -22 21 -25 0 -12 -26 -30
-37 -27 -6 2 -14 -1 -18 -6 -3 -7 3 -11 15 -11 30 0 71 44 63 67 -14 40 -44
56 -58 32z m32 -15 c-3 -3 -12 -4 -19 -1 -8 3 -5 6 6 6 11 1 17 -2 13 -5z"/>
<path d="M1565 850 c-12 -20 -14 -51 -3 -44 7 5 9 2 5 -9 -7 -17 17 -42 32
-33 5 3 12 1 14 -4 3 -6 4 -5 3 2 -2 7 -9 13 -17 13 -15 0 -14 33 2 50 5 5 9
15 9 22 0 15 -36 18 -45 3z m35 -4 c0 -3 -4 -8 -10 -11 -5 -3 -10 -1 -10 4 0
6 5 11 10 11 6 0 10 -2 10 -4z"/>
<path d="M906 842 c-4 -7 -12 -9 -18 -6 -7 4 -8 2 -4 -4 4 -6 13 -9 21 -5 8 3
15 0 15 -7 0 -6 5 -8 10 -5 6 3 10 11 10 16 0 6 -4 8 -9 5 -5 -4 -11 -1 -13 6
-3 9 -6 9 -12 0z"/>
<path d="M963 803 c-7 -3 -13 -9 -13 -15 0 -7 4 -7 13 1 10 8 17 7 25 -1 7 -7
12 -8 12 -2 0 5 5 2 11 -6 9 -13 10 -13 6 0 -2 8 -8 15 -13 15 -5 0 -13 3 -19
6 -5 4 -16 4 -22 2z"/>
<path d="M787 785 c38 -17 57 -48 50 -82 -4 -19 -1 -23 12 -17 40 18 79 16
100 -5 12 -12 21 -17 21 -11 0 21 -50 43 -85 37 -31 -5 -35 -3 -35 17 0 22
-33 66 -50 66 -4 0 -17 2 -27 5 -10 3 -4 -1 14 -10z"/>
<path d="M1253 785 c0 -8 4 -12 9 -9 5 3 6 10 3 15 -9 13 -12 11 -12 -6z"/>
<path d="M1495 790 c-3 -5 1 -10 9 -10 9 0 16 5 16 10 0 6 -4 10 -9 10 -6 0
-13 -4 -16 -10z"/>
<path d="M1417 772 c-10 -10 -17 -30 -17 -45 0 -23 -4 -26 -27 -23 -16 2 -21
1 -13 -1 8 -3 19 -9 25 -14 17 -17 25 -9 25 26 0 22 8 43 20 55 11 11 16 20
12 20 -5 0 -16 -8 -25 -18z"/>
<path d="M1150 776 c0 -2 8 -10 18 -17 15 -13 16 -12 3 4 -13 16 -21 21 -21
13z"/>
<path d="M730 730 c0 -11 6 -20 14 -20 25 0 29 -34 6 -52 -17 -13 -18 -18 -7
-18 24 0 58 50 51 74 -7 21 -25 38 -32 31 -2 -2 4 -15 13 -29 10 -14 13 -26 9
-26 -5 0 -15 14 -22 30 -16 34 -32 40 -32 10z"/>
<path d="M1452 720 c-16 -27 -16 -33 11 -63 14 -17 32 -27 47 -26 l25 1 -24 7
c-13 3 -29 15 -35 25 -9 14 -7 21 12 33 23 16 30 43 11 43 -5 0 -7 -6 -3 -12
6 -10 4 -10 -7 0 -18 16 -22 15 -37 -8z"/>
<path d="M1032 698 c13 -3 55 -6 93 -6 39 0 80 3 93 6 13 4 -29 7 -93 7 -64 0
-106 -3 -93 -7z"/>
<path d="M1298 699 c-10 -5 -18 -15 -18 -22 0 -7 -4 -18 -9 -26 -7 -11 -13
-11 -32 3 -33 22 -66 20 -93 -7 l-23 -23 -27 23 c-31 26 -62 29 -92 8 -12 -8
-24 -11 -28 -8 -3 3 -6 -3 -6 -15 0 -21 1 -21 25 3 39 40 91 30 119 -23 11
-19 15 -22 16 -9 0 25 36 57 64 57 13 0 35 -9 49 -20 32 -25 37 -25 37 0 0 12
11 32 25 45 25 26 22 32 -7 14z"/>
<path d="M867 653 c-14 -14 -6 -33 13 -33 26 0 37 -27 21 -51 -6 -11 -7 -19
-2 -19 14 0 41 41 41 61 0 31 -54 62 -73 42z m63 -33 c0 -5 -5 -10 -11 -10 -5
0 -7 5 -4 10 3 6 8 10 11 10 2 0 4 -4 4 -10z"/>
<path d="M1333 648 c-26 -12 -32 -34 -7 -24 8 3 12 2 9 -4 -4 -6 3 -9 16 -7
13 2 25 9 27 16 2 6 0 11 -5 10 -20 -3 -27 2 -13 11 20 13 1 11 -27 -2z"/>
<path d="M1004 599 c-10 -17 9 -31 36 -27 25 4 28 2 26 -25 -1 -16 -11 -36
-21 -43 -10 -8 -14 -14 -9 -14 6 0 21 11 34 25 20 21 22 29 14 57 -8 28 -14
33 -42 34 -18 1 -35 -3 -38 -7z"/>
<path d="M1169 599 c-21 -11 -23 -73 -4 -89 9 -7 15 -8 15 -2 0 6 -5 12 -11
14 -19 6 8 46 33 50 32 4 36 36 5 36 -13 0 -30 -4 -38 -9z m36 -17 c-3 -3 -11
0 -18 7 -9 10 -8 11 6 5 10 -3 15 -9 12 -12z"/>
<path d="M1300 600 c0 -20 32 -60 49 -60 15 1 15 1 0 10 -9 5 -20 21 -23 35
-6 24 -26 36 -26 15z"/>
<path d="M470 1785 c-28 -29 -51 -44 -62 -42 -9 3 -25 -1 -34 -7 -13 -10 -14
-17 -5 -34 9 -17 6 -28 -19 -65 -38 -56 -100 -186 -100 -209 0 -21 16 -24 23
-5 4 9 7 9 15 -1 5 -7 16 -10 26 -6 13 5 14 9 5 20 -16 20 -5 28 20 15 11 -6
22 -7 25 -2 3 4 -12 16 -34 26 -22 10 -40 24 -40 32 0 17 4 17 50 -7 23 -12
41 -16 45 -10 3 5 -11 17 -31 27 -21 10 -39 23 -40 28 -5 16 24 48 36 40 8 -5
5 -11 -7 -21 -16 -12 -13 -13 30 -14 26 0 47 5 47 10 0 6 -7 10 -15 10 -8 0
-24 9 -36 21 l-20 20 21 35 c12 18 26 34 31 34 13 0 11 -7 -7 -35 -9 -13 -13
-29 -9 -35 7 -12 65 -14 65 -1 0 4 -10 8 -22 7 -24 -1 -32 12 -18 34 8 12 11
12 28 -3 10 -9 25 -17 33 -17 8 1 -3 16 -24 35 -51 44 -39 66 13 25 21 -17 41
-27 44 -22 2 4 -11 21 -30 36 -28 22 -33 30 -23 42 15 19 43 18 36 -1 -9 -22
11 -29 37 -12 16 11 27 12 34 5 5 -5 12 -6 15 -1 3 5 -8 23 -24 41 -17 18 -27
37 -24 42 16 25 -15 6 -55 -35z m56 -30 c-3 -8 -9 -15 -15 -15 -9 0 -21 46
-13 54 9 10 34 -25 28 -39z m-116 -35 c0 -5 -7 -10 -15 -10 -8 0 -15 5 -15 10
0 6 7 10 15 10 8 0 15 -4 15 -10z m-110 -260 c0 -5 -4 -10 -9 -10 -6 0 -13 5
-16 10 -3 6 1 10 9 10 9 0 16 -4 16 -10z"/>
<path d="M1789 1758 c7 -9 10 -22 6 -29 -6 -8 -10 -8 -16 2 -11 18 -19 8 -29
-35 -8 -38 4 -51 15 -16 9 28 25 25 17 -2 -5 -21 -4 -22 11 -9 12 9 17 10 17
2 0 -6 -7 -14 -15 -17 -23 -9 -18 -26 6 -19 19 6 20 4 15 -22 -8 -36 14 -69
39 -60 12 5 15 14 11 31 -6 24 -5 24 22 10 29 -14 61 -64 42 -64 -6 0 -10 5
-10 11 0 6 -10 9 -22 7 -16 -2 -24 -12 -29 -36 -6 -32 4 -52 16 -32 8 13 45
13 45 0 0 -5 -9 -10 -20 -10 -11 0 -20 -4 -20 -10 0 -15 36 -12 49 4 6 7 9 21
5 30 -11 27 5 18 21 -14 15 -30 15 -30 -21 -45 -20 -8 -40 -15 -45 -15 -5 0
-9 -4 -9 -10 0 -14 11 -13 54 5 20 9 40 14 44 11 12 -7 35 52 28 70 -4 10 -14
14 -26 11 -16 -4 -25 4 -42 36 -30 61 -114 180 -145 208 -15 13 -22 16 -14 7z
m77 -100 c27 -43 30 -56 9 -38 -20 17 -38 2 -31 -26 4 -15 2 -24 -5 -24 -8 0
-10 12 -6 35 3 21 2 35 -4 35 -6 0 -8 8 -4 19 3 10 -1 24 -10 31 -8 7 -12 16
-9 22 8 12 32 -9 60 -54z m44 -138 c0 -5 -7 -10 -16 -10 -8 0 -12 5 -9 10 3 6
10 10 16 10 5 0 9 -4 9 -10z m94 -45 c-4 -8 -10 -15 -15 -15 -5 0 -9 7 -9 15
0 8 7 15 15 15 9 0 12 -6 9 -15z"/>
<path d="M180 1100 l-35 -7 43 -2 c27 0 41 3 37 9 -3 6 -7 9 -8 9 -1 -1 -18
-5 -37 -9z"/>
<path d="M250 1098 c0 -4 23 -8 51 -8 27 0 48 4 45 9 -7 11 -96 11 -96 -1z"/>
<path d="M1915 1100 c-4 -6 13 -10 45 -10 32 0 49 4 45 10 -3 6 -24 10 -45 10
-21 0 -42 -4 -45 -10z"/>
<path d="M2023 1098 c-2 -5 15 -8 38 -8 23 0 39 3 36 7 -10 9 -68 10 -74 1z"/>
<path d="M1916 872 c-9 -27 -11 -26 33 -40 39 -14 51 -9 50 21 -1 17 -2 18 -6
5 -2 -10 -11 -18 -19 -18 -11 0 -14 6 -9 23 6 20 5 21 -8 5 -19 -24 -25 -23
-29 5 l-4 22 -8 -23z"/>
<path d="M270 865 c-32 -18 -5 -19 35 0 23 10 25 13 10 14 -11 0 -31 -6 -45
-14z"/>
<path d="M295 839 c-36 -17 -37 -19 -10 -14 l30 5 -24 -20 c-13 -11 -21 -23
-17 -27 9 -9 86 18 80 29 -3 4 -15 3 -27 -3 -22 -12 -22 -12 -3 9 29 33 15 43
-29 21z"/>
<path d="M1897 817 c-10 -26 -11 -25 29 -42 42 -17 54 -13 53 18 -1 17 -2 18
-6 5 -2 -10 -11 -18 -20 -18 -11 0 -14 6 -10 21 4 17 3 19 -6 10 -16 -16 -25
-14 -29 7 -3 16 -4 16 -11 -1z"/>
<path d="M323 775 c-36 -15 -43 -39 -16 -54 12 -6 26 -5 45 5 29 15 32 22 22
48 -7 19 -10 19 -51 1z m41 -20 c-7 -17 -40 -29 -55 -19 -8 4 -3 11 12 20 32
18 50 17 43 -1z"/>
<path d="M1884 757 c5 -21 3 -25 -9 -21 -31 12 -13 -6 25 -26 22 -11 40 -16
40 -10 0 5 -4 10 -10 10 -5 0 -10 5 -10 10 0 6 9 10 20 10 11 0 20 4 20 9 0 5
-9 7 -19 4 -12 -3 -28 4 -42 18 l-22 22 7 -26z"/>
<path d="M351 709 c-18 -11 -31 -22 -28 -25 6 -7 77 28 77 38 0 13 -12 10 -49
-13z"/>
<path d="M1834 695 c-8 -19 2 -32 37 -50 26 -14 43 -5 19 10 -19 12 -10 26 11
20 15 -5 19 -4 15 4 -4 6 -14 11 -22 11 -8 0 -14 5 -14 10 0 16 -40 12 -46 -5z
m33 -21 c-9 -9 -28 6 -21 18 4 6 10 6 17 -1 6 -6 8 -13 4 -17z"/>
<path d="M360 674 c-30 -11 -34 -19 -7 -15 8 1 11 -15 7 -39 -1 -9 13 -1 34
19 50 49 37 62 -34 35z m35 -14 c-3 -5 -11 -10 -16 -10 -6 0 -7 5 -4 10 3 6
11 10 16 10 6 0 7 -4 4 -10z"/>
<path d="M1801 646 c-6 -7 -9 -21 -5 -30 4 -12 0 -16 -15 -16 -32 0 -37 -27
-11 -56 26 -27 42 -30 59 -10 8 10 6 19 -10 40 -11 14 -16 26 -10 26 5 0 13
-4 16 -10 10 -16 45 -12 52 7 4 10 -3 24 -21 40 -31 27 -39 28 -55 9z m53 -25
c12 -13 14 -21 6 -26 -11 -7 -50 21 -50 37 0 15 27 8 44 -11z m-52 -48 c21
-19 23 -33 5 -33 -18 0 -49 34 -40 43 9 10 14 9 35 -10z"/>
<path d="M410 621 c-19 -17 -30 -30 -24 -31 5 0 15 5 22 12 16 16 15 3 0 -22
-20 -32 -2 -34 36 -4 19 16 33 30 30 33 -2 3 -10 -1 -16 -7 -19 -19 -30 -14
-18 9 20 36 6 40 -30 10z"/>
<path d="M475 540 c-16 -16 -26 -32 -24 -35 3 -3 18 9 34 25 16 16 26 32 24
35 -3 3 -18 -9 -34 -25z"/>
<path d="M497 522 c-31 -33 -36 -54 -7 -27 20 18 20 18 14 -13 -8 -39 0 -40
31 -4 29 33 33 52 5 27 -22 -20 -26 -14 -10 15 16 31 -5 32 -33 2z"/>
<path d="M1710 534 c-11 -13 -9 -20 18 -47 31 -30 57 -32 32 -2 -17 20 -5 32
15 15 24 -20 17 3 -9 28 -28 26 -39 27 -56 6z m34 -15 c-3 -5 -10 -7 -15 -3
-5 3 -7 10 -3 15 3 5 10 7 15 3 5 -3 7 -10 3 -15z"/>
<path d="M561 486 c-9 -11 -9 -20 -2 -35 13 -24 -4 -39 -17 -15 -5 10 -12 12
-16 6 -8 -14 21 -35 40 -28 12 4 14 14 9 36 -6 29 8 44 18 18 2 -7 8 -10 12
-6 8 8 -12 38 -25 38 -4 0 -13 -6 -19 -14z"/>
<path d="M1660 475 c0 -9 -5 -13 -11 -9 -6 3 -14 3 -18 -2 -3 -5 -15 -14 -25
-20 -29 -16 -30 -29 -3 -60 22 -25 25 -26 45 -12 19 13 20 17 8 33 -7 10 -18
15 -25 11 -9 -6 -7 -12 6 -22 15 -11 15 -13 3 -14 -9 0 -21 5 -28 12 -15 15
-16 52 -1 42 6 -3 15 0 20 7 6 11 14 9 38 -9 17 -12 31 -18 31 -13 0 5 -4 13
-10 16 -5 3 -10 15 -10 25 0 10 -4 22 -10 25 -5 3 -10 -1 -10 -10z"/>
<path d="M624 452 c3 -5 -4 -21 -15 -38 -29 -44 -23 -50 14 -12 22 22 29 37
23 46 -9 13 -30 17 -22 4z"/>
<path d="M651 396 c-13 -20 -21 -39 -18 -42 8 -8 49 55 45 68 -2 6 -15 -5 -27
-26z"/>
<path d="M695 400 c3 -5 -1 -23 -10 -40 -8 -16 -12 -30 -7 -30 5 0 15 11 22
25 15 29 47 36 35 8 -17 -41 -17 -63 0 -70 17 -6 48 20 57 49 2 6 9 8 15 5 9
-6 8 -17 -3 -42 -8 -19 -10 -35 -5 -35 5 0 13 9 16 20 3 11 13 27 21 35 14 14
12 17 -18 29 -33 14 -33 14 -51 -20 -10 -19 -22 -32 -27 -29 -6 4 -4 18 6 36
8 17 14 32 12 33 -45 33 -75 46 -63 26z"/>
<path d="M1533 399 c-9 -9 -8 -19 2 -40 18 -34 28 -41 49 -33 20 8 20 33 0 62
-17 24 -34 28 -51 11z m39 -24 c6 -14 8 -28 4 -33 -9 -8 -36 26 -36 45 0 22
20 14 32 -12z"/>
<path d="M1470 365 c0 -10 34 -75 40 -75 3 0 15 7 26 16 18 15 18 15 -4 9 -19
-6 -25 -1 -35 24 -9 26 -27 43 -27 26z"/>
<path d="M1420 345 c-19 -23 6 -77 34 -73 27 4 32 32 12 63 -19 29 -29 31 -46
10z m39 -27 c11 -28 -5 -50 -19 -28 -13 20 -13 50 0 50 6 0 15 -10 19 -22z"/>
<path d="M1384 306 c2 -34 20 -66 31 -54 6 5 -13 68 -25 81 -4 4 -6 -8 -6 -27z"/>
<path d="M850 294 c-13 -38 -4 -54 30 -54 12 1 11 3 -2 11 -23 13 -23 29 -1
29 13 0 14 3 5 12 -19 19 -14 30 9 23 15 -5 19 -4 15 4 -15 24 -44 11 -56 -25z"/>
<path d="M1347 323 c-8 -12 13 -83 24 -83 5 0 4 11 -1 24 -6 16 -5 26 1 28 6
2 4 11 -4 22 -8 11 -17 15 -20 9z"/>
<path d="M1321 303 c-1 -27 -16 -30 -30 -5 -9 15 -10 15 -11 1 0 -32 13 -79
21 -74 4 3 6 12 3 19 -3 8 -1 17 5 21 6 3 15 -4 20 -17 9 -22 10 -21 10 7 0
17 -4 39 -9 50 -8 19 -9 19 -9 -2z"/>
<path d="M947 303 c-11 -20 -15 -60 -8 -72 22 -34 70 23 54 65 -5 15 -39 19
-46 7z m33 -22 c0 -26 -10 -51 -21 -51 -10 0 -12 31 -3 54 9 22 24 20 24 -3z"/>
<path d="M1226 294 c-16 -15 -13 -58 5 -78 12 -13 39 1 39 21 -1 17 -1 17 -11
0 -14 -24 -29 -12 -29 24 0 27 3 30 22 23 20 -6 21 -5 9 10 -16 20 -16 20 -35
0z"/>
<path d="M1010 271 c0 -16 -3 -36 -6 -45 -3 -9 -1 -16 5 -16 6 0 11 9 11 20 0
12 7 20 17 20 15 0 14 2 -3 14 -18 14 -18 15 6 25 l25 10 -27 0 c-24 1 -28 -3
-28 -28z"/>
<path d="M1090 288 c0 -5 5 -8 10 -8 6 0 10 -16 10 -35 0 -19 5 -35 10 -35 6
0 10 16 10 35 0 24 5 35 15 35 10 0 15 -11 15 -35 0 -32 3 -35 28 -34 l27 0
-25 10 c-24 10 -24 11 -6 25 17 12 18 14 3 14 -22 0 -22 9 1 26 14 11 8 12
-40 11 -32 -1 -58 -5 -58 -9z"/>
</g>
</svg>
